<svg width="44" height="44" viewBox="0 0 44 44" fill="none" xmlns="http://www.w3.org/2000/svg">
<ellipse cx="22" cy="22" rx="22" ry="22" fill="#F7F4F3"/>
<path d="M28.6893 32.4351H15.0856C13.2057 32.4351 11.6699 30.8993 11.6699 29.0194V15.4156C11.6699 13.5358 13.2057 12 15.0856 12H28.6893C30.5692 12 32.105 13.5358 32.105 15.4156V29.0194C32.105 30.9077 30.5776 32.4351 28.6893 32.4351Z" fill="#6466A3"/>
<path d="M21.8916 27.4667C20.4901 27.4667 19.1725 26.9212 18.1823 25.9309C17.192 24.9406 16.6465 23.623 16.6465 22.2215C16.6465 20.82 17.192 19.5024 18.1823 18.5122C19.1725 17.5219 20.4901 16.9764 21.8916 16.9764C23.2931 16.9764 24.6107 17.5219 25.601 18.5122C26.5913 19.5024 27.1368 20.82 27.1368 22.2215C27.1368 23.623 26.5913 24.9406 25.601 25.9309C24.6023 26.9212 23.2931 27.4667 21.8916 27.4667ZM21.8916 18.0925C19.6173 18.0925 17.7626 19.9388 17.7626 22.2215C17.7626 24.4958 19.6089 26.3505 21.8916 26.3505C24.1659 26.3505 26.0206 24.5042 26.0206 22.2215C26.0122 19.9472 24.1659 18.0925 21.8916 18.0925Z" fill="#F7F4F3"/>
<path d="M28.1594 16.804C28.7156 16.804 29.1665 16.3531 29.1665 15.7969C29.1665 15.2407 28.7156 14.7899 28.1594 14.7899C27.6032 14.7899 27.1523 15.2407 27.1523 15.7969C27.1523 16.3531 27.6032 16.804 28.1594 16.804Z" fill="#F7F4F3"/>
</svg>
